<svg width="1919" height="1079" xmlns="http://www.w3.org/2000/svg"><g><path d="M-42,-63L-152,711L-85,438Z" fill="#ffe08d" stroke="#ffe08d"/><path d="M-42,-63L-85,438L-36,123Z" fill="#fffba2" stroke="#fffba2"/><path d="M-42,-63L-36,123L32,49Z" fill="#fffebc" stroke="#fffebc"/><path d="M-42,-63L32,49L63,-120Z" fill="#fffecc" stroke="#fffecc"/><path d="M63,-120L32,49L231,-135Z" fill="#fff8c8" stroke="#fff8c8"/><path d="M231,-135L32,49L341,93Z" fill="#fff2ac" stroke="#fff2ac"/><path d="M231,-135L341,93L442,-124Z" fill="#ffe9aa" stroke="#ffe9aa"/><path d="M231,-135L442,-124L1242,-128Z" fill="#fed1a3" stroke="#fed1a3"/><path d="M231,-135L1242,-128L2166,-145Z" fill="#f49990" stroke="#f49990"/><path d="M442,-124L341,93L499,147Z" fill="#ffe18d" stroke="#ffe18d"/><path d="M442,-124L499,147L616,137Z" fill="#ffd986" stroke="#ffd986"/><path d="M442,-124L616,137L719,-100Z" fill="#fed597" stroke="#fed597"/><path d="M442,-124L719,-100L1242,-128Z" fill="#fec39d" stroke="#fec39d"/><path d="M719,-100L616,137L853,99Z" fill="#fec87f" stroke="#fec87f"/><path d="M719,-100L853,99L895,-50Z" fill="#fdc08a" stroke="#fdc08a"/><path d="M719,-100L895,-50L1037,-103Z" fill="#fcba98" stroke="#fcba98"/><path d="M719,-100L1037,-103L1242,-128Z" fill="#faad95" stroke="#faad95"/><path d="M895,-50L853,99L1107,86Z" fill="#fbb177" stroke="#fbb177"/><path d="M895,-50L1107,86L1037,-103Z" fill="#faac85" stroke="#faac85"/><path d="M1037,-103L1107,86L1242,-128Z" fill="#f8a087" stroke="#f8a087"/><path d="M1242,-128L1107,86L1259,33Z" fill="#f4997b" stroke="#f4997b"/><path d="M1242,-128L1259,33L1410,-95Z" fill="#ee928a" stroke="#ee928a"/><path d="M1242,-128L1410,-95L1667,-105Z" fill="#e58792" stroke="#e58792"/><path d="M1242,-128L1667,-105L2166,-145Z" fill="#d48094" stroke="#d48094"/><path d="M1410,-95L1259,33L1472,47Z" fill="#e98c7d" stroke="#e98c7d"/><path d="M1410,-95L1472,47L1587,56Z" fill="#e1837c" stroke="#e1837c"/><path d="M1410,-95L1587,56L1667,-105Z" fill="#dd8089" stroke="#dd8089"/><path d="M1667,-105L1587,56L1770,115Z" fill="#d57f79" stroke="#d57f79"/><path d="M1667,-105L1770,115L1843,-72Z" fill="#cf8084" stroke="#cf8084"/><path d="M1667,-105L1843,-72L2027,-126Z" fill="#ca8095" stroke="#ca8095"/><path d="M1667,-105L2027,-126L2166,-145Z" fill="#c28096" stroke="#c28096"/><path d="M1843,-72L1770,115L2035,156Z" fill="#c77e70" stroke="#c77e70"/><path d="M1843,-72L2035,156L2027,-126Z" fill="#c18084" stroke="#c18084"/><path d="M2027,-126L2035,156L2124,147Z" fill="#bb7e73" stroke="#bb7e73"/><path d="M2027,-126L2124,147L2166,-145Z" fill="#b8808c" stroke="#b8808c"/><path d="M2166,-145L2124,147L2156,226Z" fill="#b57e70" stroke="#b57e70"/><path d="M2166,-145L2156,226L2198,501Z" fill="#b47a54" stroke="#b47a54"/><path d="M-36,123L-85,438L-38,245Z" fill="#fff091" stroke="#fff091"/><path d="M-36,123L-38,245L140,306Z" fill="#fff68c" stroke="#fff68c"/><path d="M-36,123L140,306L32,49Z" fill="#fff898" stroke="#fff898"/><path d="M32,49L140,306L254,230Z" fill="#fff085" stroke="#fff085"/><path d="M32,49L254,230L341,93Z" fill="#ffee8e" stroke="#ffee8e"/><path d="M341,93L254,230L518,235Z" fill="#ffe26d" stroke="#ffe26d"/><path d="M341,93L518,235L499,147Z" fill="#ffdc6f" stroke="#ffdc6f"/><path d="M499,147L518,235L616,137Z" fill="#ffd468" stroke="#ffd468"/><path d="M616,137L518,235L703,253Z" fill="#fecd5d" stroke="#fecd5d"/><path d="M616,137L703,253L853,99Z" fill="#fec563" stroke="#fec563"/><path d="M853,99L703,253L890,263Z" fill="#fdbc56" stroke="#fdbc56"/><path d="M853,99L890,263L1107,86Z" fill="#fbaf5e" stroke="#fbaf5e"/><path d="M1107,86L890,263L1096,344Z" fill="#faa24a" stroke="#faa24a"/><path d="M1107,86L1096,344L1241,334Z" fill="#f89143" stroke="#f89143"/><path d="M1107,86L1241,334L1370,228Z" fill="#f29047" stroke="#f29047"/><path d="M1107,86L1370,228L1259,33Z" fill="#f2935f" stroke="#f2935f"/><path d="M1259,33L1370,228L1472,47Z" fill="#e98a63" stroke="#e98a63"/><path d="M1472,47L1370,228L1600,281Z" fill="#e27f51" stroke="#e27f51"/><path d="M1472,47L1600,281L1587,56Z" fill="#dd7c5f" stroke="#dd7c5f"/><path d="M1587,56L1600,281L1770,115Z" fill="#d67c5a" stroke="#d67c5a"/><path d="M1770,115L1600,281L1775,276Z" fill="#d2784b" stroke="#d2784b"/><path d="M1770,115L1775,276L2035,156Z" fill="#c97b54" stroke="#c97b54"/><path d="M2035,156L1775,276L2042,244Z" fill="#c3784c" stroke="#c3784c"/><path d="M2035,156L2042,244L2124,147Z" fill="#bb7b56" stroke="#bb7b56"/><path d="M2124,147L2042,244L2156,226Z" fill="#b87a51" stroke="#b87a51"/><path d="M-38,245L-85,438L140,306Z" fill="#ffe585" stroke="#ffe585"/><path d="M140,306L-85,438L98,514Z" fill="#ffd278" stroke="#ffd278"/><path d="M140,306L98,514L257,476Z" fill="#ffc96a" stroke="#ffc96a"/><path d="M140,306L257,476L254,230Z" fill="#ffd66d" stroke="#ffd66d"/><path d="M254,230L257,476L414,481Z" fill="#ffc55d" stroke="#ffc55d"/><path d="M254,230L414,481L518,235Z" fill="#ffcd5b" stroke="#ffcd5b"/><path d="M518,235L414,481L722,422Z" fill="#ffb54f" stroke="#ffb54f"/><path d="M518,235L722,422L703,253Z" fill="#febb52" stroke="#febb52"/><path d="M703,253L722,422L890,263Z" fill="#feaf4c" stroke="#feaf4c"/><path d="M890,263L722,422L792,464Z" fill="#fea045" stroke="#fea045"/><path d="M890,263L792,464L1049,411Z" fill="#fc9541" stroke="#fc9541"/><path d="M890,263L1049,411L1096,344Z" fill="#fa9141" stroke="#fa9141"/><path d="M1096,344L1049,411L1243,526Z" fill="#f87535" stroke="#f87535"/><path d="M1096,344L1243,526L1241,334Z" fill="#f57437" stroke="#f57437"/><path d="M1241,334L1243,526L1463,490Z" fill="#ed6134" stroke="#ed6134"/><path d="M1241,334L1463,490L1370,228Z" fill="#ea703c" stroke="#ea703c"/><path d="M1370,228L1463,490L1600,281Z" fill="#e26a3f" stroke="#e26a3f"/><path d="M1600,281L1463,490L1658,444Z" fill="#dc593a" stroke="#dc593a"/><path d="M1600,281L1658,444L1775,276Z" fill="#d56540" stroke="#d56540"/><path d="M1775,276L1658,444L1790,473Z" fill="#d15a3b" stroke="#d15a3b"/><path d="M1775,276L1790,473L2042,244Z" fill="#c86642" stroke="#c86642"/><path d="M2042,244L1790,473L2046,501Z" fill="#c2593d" stroke="#c2593d"/><path d="M2042,244L2046,501L2156,226Z" fill="#ba6745" stroke="#ba6745"/><path d="M2156,226L2046,501L2198,501Z" fill="#b7583d" stroke="#b7583d"/><path d="M-85,438L-152,711L98,514Z" fill="#ffb878" stroke="#ffb878"/><path d="M98,514L-152,711L151,616Z" fill="#ffa86b" stroke="#ffa86b"/><path d="M98,514L151,616L257,476Z" fill="#ffb162" stroke="#ffb162"/><path d="M257,476L151,616L298,680Z" fill="#ffa056" stroke="#ffa056"/><path d="M257,476L298,680L414,481Z" fill="#ffa450" stroke="#ffa450"/><path d="M414,481L298,680L418,666Z" fill="#ff9245" stroke="#ff9245"/><path d="M414,481L418,666L716,690Z" fill="#ff863e" stroke="#ff863e"/><path d="M414,481L716,690L722,422Z" fill="#fe9141" stroke="#fe9141"/><path d="M722,422L716,690L792,464Z" fill="#fe873c" stroke="#fe873c"/><path d="M792,464L716,690L887,648Z" fill="#fe7134" stroke="#fe7134"/><path d="M792,464L887,648L1049,411Z" fill="#fc7a37" stroke="#fc7a37"/><path d="M1049,411L887,648L1063,666Z" fill="#fa612e" stroke="#fa612e"/><path d="M1049,411L1063,666L1243,526Z" fill="#f85e2d" stroke="#f85e2d"/><path d="M1243,526L1063,666L1250,633Z" fill="#f54727" stroke="#f54727"/><path d="M1243,526L1250,633L1463,490Z" fill="#ed4a2c" stroke="#ed4a2c"/><path d="M1463,490L1250,633L1476,685Z" fill="#e73829" stroke="#e73829"/><path d="M1463,490L1476,685L1625,703Z" fill="#df2928" stroke="#df2928"/><path d="M1463,490L1625,703L1658,444Z" fill="#db3a2f" stroke="#db3a2f"/><path d="M1658,444L1625,703L1790,473Z" fill="#d43c2f" stroke="#d43c2f"/><path d="M1790,473L1625,703L1825,726Z" fill="#d02629" stroke="#d02629"/><path d="M1790,473L1825,726L2014,667Z" fill="#c8292b" stroke="#c8292b"/><path d="M1790,473L2014,667L2046,501Z" fill="#c33a31" stroke="#c33a31"/><path d="M2046,501L2014,667L2177,612Z" fill="#ba302f" stroke="#ba302f"/><path d="M2046,501L2177,612L2198,501Z" fill="#b63c33" stroke="#b63c33"/><path d="M2198,501L2177,612L2213,828Z" fill="#b2232b" stroke="#b2232b"/><path d="M-152,711L-55,1216L-110,893Z" fill="#eb807d" stroke="#eb807d"/><path d="M-152,711L-110,893L74,899Z" fill="#f28476" stroke="#f28476"/><path d="M-152,711L74,899L151,616Z" fill="#f9926b" stroke="#f9926b"/><path d="M151,616L74,899L265,815Z" fill="#f6835c" stroke="#f6835c"/><path d="M151,616L265,815L298,680Z" fill="#fb8a53" stroke="#fb8a53"/><path d="M298,680L265,815L418,666Z" fill="#fa8149" stroke="#fa8149"/><path d="M418,666L265,815L498,836Z" fill="#f67443" stroke="#f67443"/><path d="M418,666L498,836L716,690Z" fill="#f96f3c" stroke="#f96f3c"/><path d="M716,690L498,836L694,835Z" fill="#f55e39" stroke="#f55e39"/><path d="M716,690L694,835L838,881Z" fill="#f45235" stroke="#f45235"/><path d="M716,690L838,881L887,648Z" fill="#f75631" stroke="#f75631"/><path d="M887,648L838,881L1028,911Z" fill="#f03f2e" stroke="#f03f2e"/><path d="M887,648L1028,911L1063,666Z" fill="#f4422b" stroke="#f4422b"/><path d="M1063,666L1028,911L1183,888Z" fill="#ed2b28" stroke="#ed2b28"/><path d="M1063,666L1183,888L1250,633Z" fill="#f13325" stroke="#f13325"/><path d="M1250,633L1183,888L1423,888Z" fill="#e41d27" stroke="#e41d27"/><path d="M1250,633L1423,888L1476,685Z" fill="#e22027" stroke="#e22027"/><path d="M1476,685L1423,888L1555,839Z" fill="#d70e28" stroke="#d70e28"/><path d="M1476,685L1555,839L1625,703Z" fill="#d71428" stroke="#d71428"/><path d="M1625,703L1555,839L1794,874Z" fill="#cb0a2a" stroke="#cb0a2a"/><path d="M1625,703L1794,874L1825,726Z" fill="#c8102a" stroke="#c8102a"/><path d="M1825,726L1794,874L1962,828Z" fill="#bd092b" stroke="#bd092b"/><path d="M1825,726L1962,828L2014,667Z" fill="#bd142b" stroke="#bd142b"/><path d="M2014,667L1962,828L2213,828Z" fill="#b20f2c" stroke="#b20f2c"/><path d="M2014,667L2213,828L2177,612Z" fill="#b21a2c" stroke="#b21a2c"/><path d="M-110,893L-55,1216L-47,1036Z" fill="#e3807b" stroke="#e3807b"/><path d="M-110,893L-47,1036L74,899Z" fill="#eb8074" stroke="#eb8074"/><path d="M74,899L-47,1036L120,1014Z" fill="#e87c6c" stroke="#e87c6c"/><path d="M74,899L120,1014L265,815Z" fill="#ed765f" stroke="#ed765f"/><path d="M265,815L120,1014L321,1064Z" fill="#e97057" stroke="#e97057"/><path d="M265,815L321,1064L498,836Z" fill="#ed6848" stroke="#ed6848"/><path d="M498,836L321,1064L433,1083Z" fill="#e76345" stroke="#e76345"/><path d="M498,836L433,1083L617,1019Z" fill="#e85b41" stroke="#e85b41"/><path d="M498,836L617,1019L694,835Z" fill="#ed543c" stroke="#ed543c"/><path d="M694,835L617,1019L838,881Z" fill="#ec4b38" stroke="#ec4b38"/><path d="M838,881L617,1019L908,1046Z" fill="#e64536" stroke="#e64536"/><path d="M838,881L908,1046L1028,911Z" fill="#e73631" stroke="#e73631"/><path d="M1028,911L908,1046L1039,1073Z" fill="#e12f2f" stroke="#e12f2f"/><path d="M1028,911L1039,1073L1183,888Z" fill="#e3252b" stroke="#e3252b"/><path d="M1183,888L1039,1073L1253,1008Z" fill="#df1d29" stroke="#df1d29"/><path d="M1183,888L1253,1008L1423,888Z" fill="#db1329" stroke="#db1329"/><path d="M1423,888L1253,1008L1432,1092Z" fill="#d10d2a" stroke="#d10d2a"/><path d="M1423,888L1432,1092L1623,986Z" fill="#ca042b" stroke="#ca042b"/><path d="M1423,888L1623,986L1555,839Z" fill="#cc002a" stroke="#cc002a"/><path d="M1555,839L1623,986L1794,874Z" fill="#c5002b" stroke="#c5002b"/><path d="M1794,874L1623,986L1865,1004Z" fill="#ba002d" stroke="#ba002d"/><path d="M1794,874L1865,1004L1962,828Z" fill="#b6002d" stroke="#b6002d"/><path d="M1962,828L1865,1004L2055,1031Z" fill="#ac002f" stroke="#ac002f"/><path d="M1962,828L2055,1031L2213,828Z" fill="#a9002e" stroke="#a9002e"/><path d="M2213,828L2055,1031L2134,1091Z" fill="#9f0030" stroke="#9f0030"/><path d="M2213,828L2134,1091L2204,1174Z" fill="#990031" stroke="#990031"/><path d="M-47,1036L-55,1216L40,1198Z" fill="#dc8077" stroke="#dc8077"/><path d="M-47,1036L40,1198L120,1014Z" fill="#e17d6f" stroke="#e17d6f"/><path d="M120,1014L40,1198L288,1208Z" fill="#dd7664" stroke="#dd7664"/><path d="M120,1014L288,1208L321,1064Z" fill="#e07059" stroke="#e07059"/><path d="M321,1064L288,1208L433,1083Z" fill="#de694d" stroke="#de694d"/><path d="M433,1083L288,1208L443,1240Z" fill="#da664a" stroke="#da664a"/><path d="M433,1083L443,1240L605,1253Z" fill="#d95d46" stroke="#d95d46"/><path d="M433,1083L605,1253L617,1019Z" fill="#de5842" stroke="#de5842"/><path d="M617,1019L605,1253L902,1238Z" fill="#da4c3c" stroke="#da4c3c"/><path d="M617,1019L902,1238L908,1046Z" fill="#de4237" stroke="#de4237"/><path d="M908,1046L902,1238L1039,1073Z" fill="#da3332" stroke="#da3332"/><path d="M1039,1073L902,1238L1061,1191Z" fill="#d62e31" stroke="#d62e31"/><path d="M1039,1073L1061,1191L1269,1186Z" fill="#d5212c" stroke="#d5212c"/><path d="M1039,1073L1269,1186L1253,1008Z" fill="#d71b2b" stroke="#d71b2b"/><path d="M1253,1008L1269,1186L1432,1092Z" fill="#ce112c" stroke="#ce112c"/><path d="M1432,1092L1269,1186L1473,1233Z" fill="#c30b2e" stroke="#c30b2e"/><path d="M1432,1092L1473,1233L1623,986Z" fill="#c0022e" stroke="#c0022e"/><path d="M1623,986L1473,1233L1561,1286Z" fill="#b9002f" stroke="#b9002f"/><path d="M1623,986L1561,1286L1742,1263Z" fill="#b20030" stroke="#b20030"/><path d="M1623,986L1742,1263L1865,1004Z" fill="#b2002f" stroke="#b2002f"/><path d="M1865,1004L1742,1263L1947,1207Z" fill="#a60031" stroke="#a60031"/><path d="M1865,1004L1947,1207L2055,1031Z" fill="#a40031" stroke="#a40031"/><path d="M2055,1031L1947,1207L2134,1091Z" fill="#9c0032" stroke="#9c0032"/><path d="M2134,1091L1947,1207L2204,1174Z" fill="#960033" stroke="#960033"/><path d="M-55,1216L605,1253L443,1240Z" fill="#d66a51" stroke="#d66a51"/><path d="M-55,1216L443,1240L288,1208Z" fill="#d7715d" stroke="#d7715d"/><path d="M-55,1216L288,1208L40,1198Z" fill="#d87a6b" stroke="#d87a6b"/><path d="M605,1253L1561,1286L902,1238Z" fill="#cf2c32" stroke="#cf2c32"/><path d="M902,1238L1561,1286L1269,1186Z" fill="#c9172d" stroke="#c9172d"/><path d="M902,1238L1269,1186L1061,1191Z" fill="#d2262f" stroke="#d2262f"/><path d="M1269,1186L1561,1286L1473,1233Z" fill="#bc082f" stroke="#bc082f"/><path d="M1742,1263L2204,1174L1947,1207Z" fill="#9a0033" stroke="#9a0033"/></g></svg>