<svg width="1919" height="1057" xmlns="http://www.w3.org/2000/svg"><g><path d="M-100,-105L-110,457L-53,89Z" fill="#ffffae" stroke="#ffffae"/><path d="M-100,-105L-53,89L71,63Z" fill="#ffffc3" stroke="#ffffc3"/><path d="M-100,-105L71,63L122,-81Z" fill="#fffdc9" stroke="#fffdc9"/><path d="M-100,-105L122,-81L224,-124Z" fill="#fffad1" stroke="#fffad1"/><path d="M122,-81L71,63L328,81Z" fill="#fff5af" stroke="#fff5af"/><path d="M122,-81L328,81L224,-124Z" fill="#fff2b7" stroke="#fff2b7"/><path d="M224,-124L328,81L500,-38Z" fill="#ffeaa9" stroke="#ffeaa9"/><path d="M224,-124L500,-38L651,-64Z" fill="#ffe4ab" stroke="#ffe4ab"/><path d="M224,-124L651,-64L828,-146Z" fill="#ffddaa" stroke="#ffddaa"/><path d="M500,-38L328,81L435,136Z" fill="#ffe693" stroke="#ffe693"/><path d="M500,-38L435,136L690,56Z" fill="#ffdf8c" stroke="#ffdf8c"/><path d="M500,-38L690,56L651,-64Z" fill="#ffda95" stroke="#ffda95"/><path d="M651,-64L690,56L828,-146Z" fill="#ffd499" stroke="#ffd499"/><path d="M828,-146L690,56L913,120Z" fill="#fecf8a" stroke="#fecf8a"/><path d="M828,-146L913,120L986,-31Z" fill="#fec98e" stroke="#fec98e"/><path d="M828,-146L986,-31L1245,-47Z" fill="#fdbf95" stroke="#fdbf95"/><path d="M828,-146L1245,-47L1454,-133Z" fill="#faab94" stroke="#faab94"/><path d="M986,-31L913,120L1086,78Z" fill="#fec27c" stroke="#fec27c"/><path d="M986,-31L1086,78L1245,-47Z" fill="#fbb482" stroke="#fbb482"/><path d="M1245,-47L1086,78L1244,84Z" fill="#faa877" stroke="#faa877"/><path d="M1245,-47L1244,84L1420,61Z" fill="#f69b74" stroke="#f69b74"/><path d="M1245,-47L1420,61L1454,-133Z" fill="#f09583" stroke="#f09583"/><path d="M1454,-133L1420,61L1651,-72Z" fill="#e58886" stroke="#e58886"/><path d="M1454,-133L1651,-72L1963,-117Z" fill="#d78094" stroke="#d78094"/><path d="M1651,-72L1420,61L1608,151Z" fill="#e18373" stroke="#e18373"/><path d="M1651,-72L1608,151L1783,139Z" fill="#d88070" stroke="#d88070"/><path d="M1651,-72L1783,139L1802,-50Z" fill="#d3807e" stroke="#d3807e"/><path d="M1651,-72L1802,-50L1963,-117Z" fill="#ce808f" stroke="#ce808f"/><path d="M1802,-50L1783,139L2013,154Z" fill="#c9806f" stroke="#c9806f"/><path d="M1802,-50L2013,154L1963,-117Z" fill="#c48081" stroke="#c48081"/><path d="M1963,-117L2013,154L2131,-57Z" fill="#bb8083" stroke="#bb8083"/><path d="M2131,-57L2013,154L2241,150Z" fill="#b48072" stroke="#b48072"/><path d="M-53,89L-110,457L-49,276Z" fill="#fff398" stroke="#fff398"/><path d="M-53,89L-49,276L85,230Z" fill="#fffd9d" stroke="#fffd9d"/><path d="M-53,89L85,230L71,63Z" fill="#fffda7" stroke="#fffda7"/><path d="M71,63L85,230L328,81Z" fill="#fff69b" stroke="#fff69b"/><path d="M328,81L85,230L315,233Z" fill="#fff088" stroke="#fff088"/><path d="M328,81L315,233L435,136Z" fill="#ffea85" stroke="#ffea85"/><path d="M435,136L315,233L449,330Z" fill="#ffe075" stroke="#ffe075"/><path d="M435,136L449,330L609,227Z" fill="#ffdb6e" stroke="#ffdb6e"/><path d="M435,136L609,227L690,56Z" fill="#ffdd78" stroke="#ffdd78"/><path d="M690,56L609,227L859,281Z" fill="#ffd369" stroke="#ffd369"/><path d="M690,56L859,281L913,120Z" fill="#fece6d" stroke="#fece6d"/><path d="M913,120L859,281L1087,262Z" fill="#fec15e" stroke="#fec15e"/><path d="M913,120L1087,262L1086,78Z" fill="#fdbd66" stroke="#fdbd66"/><path d="M1086,78L1087,262L1225,225Z" fill="#fbaf5b" stroke="#fbaf5b"/><path d="M1086,78L1225,225L1244,84Z" fill="#faa964" stroke="#faa964"/><path d="M1244,84L1225,225L1420,61Z" fill="#f69c61" stroke="#f69c61"/><path d="M1420,61L1225,225L1435,339Z" fill="#f19253" stroke="#f19253"/><path d="M1420,61L1435,339L1574,284Z" fill="#e88551" stroke="#e88551"/><path d="M1420,61L1574,284L1608,151Z" fill="#e3865b" stroke="#e3865b"/><path d="M1608,151L1574,284L1755,258Z" fill="#db7952" stroke="#db7952"/><path d="M1608,151L1755,258L1783,139Z" fill="#d57f5a" stroke="#d57f5a"/><path d="M1783,139L1755,258L1994,323Z" fill="#cb7853" stroke="#cb7853"/><path d="M1783,139L1994,323L2013,154Z" fill="#c47c59" stroke="#c47c59"/><path d="M2013,154L1994,323L2189,291Z" fill="#b97653" stroke="#b97653"/><path d="M2013,154L2189,291L2241,150Z" fill="#b37d5c" stroke="#b37d5c"/><path d="M2241,150L2189,291L2216,533Z" fill="#ad6e4a" stroke="#ad6e4a"/><path d="M2241,150L2216,533L2174,1277Z" fill="#ae3231" stroke="#ae3231"/><path d="M-49,276L-110,457L83,477Z" fill="#ffe386" stroke="#ffe386"/><path d="M-49,276L83,477L85,230Z" fill="#ffea86" stroke="#ffea86"/><path d="M85,230L83,477L316,438Z" fill="#ffdd76" stroke="#ffdd76"/><path d="M85,230L316,438L315,233Z" fill="#ffe277" stroke="#ffe277"/><path d="M315,233L316,438L449,330Z" fill="#ffd768" stroke="#ffd768"/><path d="M449,330L316,438L518,517Z" fill="#ffc75d" stroke="#ffc75d"/><path d="M449,330L518,517L609,227Z" fill="#ffca5a" stroke="#ffca5a"/><path d="M609,227L518,517L712,538Z" fill="#ffbb51" stroke="#ffbb51"/><path d="M609,227L712,538L831,472Z" fill="#ffb74e" stroke="#ffb74e"/><path d="M609,227L831,472L859,281Z" fill="#ffbf54" stroke="#ffbf54"/><path d="M859,281L831,472L1097,421Z" fill="#feae4a" stroke="#feae4a"/><path d="M859,281L1097,421L1087,262Z" fill="#fdae4d" stroke="#fdae4d"/><path d="M1087,262L1097,421L1225,225Z" fill="#fba04b" stroke="#fba04b"/><path d="M1225,225L1097,421L1294,498Z" fill="#f98e3f" stroke="#f98e3f"/><path d="M1225,225L1294,498L1435,339Z" fill="#f5843e" stroke="#f5843e"/><path d="M1435,339L1294,498L1483,439Z" fill="#ee733a" stroke="#ee733a"/><path d="M1435,339L1483,439L1574,284Z" fill="#e6743f" stroke="#e6743f"/><path d="M1574,284L1483,439L1612,482Z" fill="#e2683d" stroke="#e2683d"/><path d="M1574,284L1612,482L1755,258Z" fill="#da6c42" stroke="#da6c42"/><path d="M1755,258L1612,482L1751,485Z" fill="#d6633e" stroke="#d6633e"/><path d="M1755,258L1751,485L1994,323Z" fill="#cc6a42" stroke="#cc6a42"/><path d="M1994,323L1751,485L1985,484Z" fill="#c5603f" stroke="#c5603f"/><path d="M1994,323L1985,484L2189,291Z" fill="#ba6944" stroke="#ba6944"/><path d="M2189,291L1985,484L2216,533Z" fill="#b46041" stroke="#b46041"/><path d="M-110,457L-104,994L-99,670Z" fill="#ffa276" stroke="#ffa276"/><path d="M-110,457L-99,670L77,606Z" fill="#ffc67c" stroke="#ffc67c"/><path d="M-110,457L77,606L83,477Z" fill="#ffd57c" stroke="#ffd57c"/><path d="M83,477L77,606L270,670Z" fill="#ffbc6a" stroke="#ffbc6a"/><path d="M83,477L270,670L316,438Z" fill="#ffc768" stroke="#ffc768"/><path d="M316,438L270,670L518,517Z" fill="#ffba5b" stroke="#ffba5b"/><path d="M518,517L270,670L475,714Z" fill="#ff9d4e" stroke="#ff9d4e"/><path d="M518,517L475,714L654,700Z" fill="#ff9345" stroke="#ff9345"/><path d="M518,517L654,700L712,538Z" fill="#ff9e45" stroke="#ff9e45"/><path d="M712,538L654,700L900,678Z" fill="#ff883c" stroke="#ff883c"/><path d="M712,538L900,678L831,472Z" fill="#fe9a42" stroke="#fe9a42"/><path d="M831,472L900,678L1018,668Z" fill="#fe883b" stroke="#fe883b"/><path d="M831,472L1018,668L1097,421Z" fill="#fe9941" stroke="#fe9941"/><path d="M1097,421L1018,668L1290,617Z" fill="#fb7936" stroke="#fb7936"/><path d="M1097,421L1290,617L1294,498Z" fill="#f97a37" stroke="#f97a37"/><path d="M1294,498L1290,617L1416,635Z" fill="#f35d2f" stroke="#f35d2f"/><path d="M1294,498L1416,635L1483,439Z" fill="#ee6735" stroke="#ee6735"/><path d="M1483,439L1416,635L1612,482Z" fill="#e65e36" stroke="#e65e36"/><path d="M1612,482L1416,635L1671,657Z" fill="#e14630" stroke="#e14630"/><path d="M1612,482L1671,657L1745,632Z" fill="#d84331" stroke="#d84331"/><path d="M1612,482L1745,632L1751,485Z" fill="#d65337" stroke="#d65337"/><path d="M1751,485L1745,632L1985,484Z" fill="#cc5338" stroke="#cc5338"/><path d="M1985,484L1745,632L2037,631Z" fill="#c44535" stroke="#c44535"/><path d="M1985,484L2037,631L2216,533Z" fill="#b84e39" stroke="#b84e39"/><path d="M2216,533L2037,631L2190,620Z" fill="#b34236" stroke="#b34236"/><path d="M2216,533L2190,620L2184,898Z" fill="#af292e" stroke="#af292e"/><path d="M2216,533L2184,898L2174,1277Z" fill="#9e0030" stroke="#9e0030"/><path d="M-99,670L-104,994L-65,869Z" fill="#f38778" stroke="#f38778"/><path d="M-99,670L-65,869L129,848Z" fill="#f8916f" stroke="#f8916f"/><path d="M-99,670L129,848L77,606Z" fill="#ffa069" stroke="#ffa069"/><path d="M77,606L129,848L270,670Z" fill="#ff995d" stroke="#ff995d"/><path d="M270,670L129,848L317,790Z" fill="#f98857" stroke="#f98857"/><path d="M270,670L317,790L475,714Z" fill="#fd8a4d" stroke="#fd8a4d"/><path d="M475,714L317,790L511,914Z" fill="#f67549" stroke="#f67549"/><path d="M475,714L511,914L654,890Z" fill="#f36742" stroke="#f36742"/><path d="M475,714L654,890L654,700Z" fill="#f9733e" stroke="#f9733e"/><path d="M654,700L654,890L891,792Z" fill="#f76539" stroke="#f76539"/><path d="M654,700L891,792L900,678Z" fill="#fd6f35" stroke="#fd6f35"/><path d="M900,678L891,792L1018,668Z" fill="#fe6a32" stroke="#fe6a32"/><path d="M1018,668L891,792L981,901Z" fill="#f75933" stroke="#f75933"/><path d="M1018,668L981,901L1179,912Z" fill="#f2442f" stroke="#f2442f"/><path d="M1018,668L1179,912L1290,617Z" fill="#f84a29" stroke="#f84a29"/><path d="M1290,617L1179,912L1439,904Z" fill="#ed2a25" stroke="#ed2a25"/><path d="M1290,617L1439,904L1416,635Z" fill="#ef3425" stroke="#ef3425"/><path d="M1416,635L1439,904L1656,835Z" fill="#de1b27" stroke="#de1b27"/><path d="M1416,635L1656,835L1671,657Z" fill="#df2426" stroke="#df2426"/><path d="M1671,657L1656,835L1745,632Z" fill="#d62327" stroke="#d62327"/><path d="M1745,632L1656,835L1823,910Z" fill="#cb1229" stroke="#cb1229"/><path d="M1745,632L1823,910L2037,631Z" fill="#c71f29" stroke="#c71f29"/><path d="M2037,631L1823,910L2022,905Z" fill="#b80d2c" stroke="#b80d2c"/><path d="M2037,631L2022,905L2184,898Z" fill="#af0e2d" stroke="#af0e2d"/><path d="M2037,631L2184,898L2190,620Z" fill="#b2212b" stroke="#b2212b"/><path d="M-65,869L-104,994L143,1011Z" fill="#ea8072" stroke="#ea8072"/><path d="M-65,869L143,1011L129,848Z" fill="#ee7c6a" stroke="#ee7c6a"/><path d="M129,848L143,1011L230,1033Z" fill="#e97662" stroke="#e97662"/><path d="M129,848L230,1033L317,790Z" fill="#ef725b" stroke="#ef725b"/><path d="M317,790L230,1033L511,914Z" fill="#ed6b50" stroke="#ed6b50"/><path d="M511,914L230,1033L497,1099Z" fill="#e4674e" stroke="#e4674e"/><path d="M511,914L497,1099L713,1048Z" fill="#e45d44" stroke="#e45d44"/><path d="M511,914L713,1048L654,890Z" fill="#ea5a3f" stroke="#ea5a3f"/><path d="M654,890L713,1048L891,792Z" fill="#ed533a" stroke="#ed533a"/><path d="M891,792L713,1048L981,901Z" fill="#ec4c38" stroke="#ec4c38"/><path d="M981,901L713,1048L851,1096Z" fill="#e44d3a" stroke="#e44d3a"/><path d="M981,901L851,1096L1094,994Z" fill="#e54537" stroke="#e54537"/><path d="M981,901L1094,994L1179,912Z" fill="#e83730" stroke="#e83730"/><path d="M1179,912L1094,994L1257,1101Z" fill="#e02b2e" stroke="#e02b2e"/><path d="M1179,912L1257,1101L1439,904Z" fill="#e01d29" stroke="#e01d29"/><path d="M1439,904L1257,1101L1444,1089Z" fill="#d4142b" stroke="#d4142b"/><path d="M1439,904L1444,1089L1668,1031Z" fill="#cb082b" stroke="#cb082b"/><path d="M1439,904L1668,1031L1656,835Z" fill="#cd012b" stroke="#cd012b"/><path d="M1656,835L1668,1031L1761,1009Z" fill="#c1002c" stroke="#c1002c"/><path d="M1656,835L1761,1009L1823,910Z" fill="#c0002c" stroke="#c0002c"/><path d="M1823,910L1761,1009L2002,1055Z" fill="#b1002e" stroke="#b1002e"/><path d="M1823,910L2002,1055L2022,905Z" fill="#ad002f" stroke="#ad002f"/><path d="M2022,905L2002,1055L2139,1040Z" fill="#a10031" stroke="#a10031"/><path d="M2022,905L2139,1040L2184,898Z" fill="#a10030" stroke="#a10030"/><path d="M2184,898L2139,1040L2174,1277Z" fill="#920033" stroke="#920033"/><path d="M-104,994L-81,1207L143,1011Z" fill="#e08075" stroke="#e08075"/><path d="M143,1011L-81,1207L108,1269Z" fill="#d87c70" stroke="#d87c70"/><path d="M143,1011L108,1269L230,1033Z" fill="#dd7665" stroke="#dd7665"/><path d="M230,1033L108,1269L230,1282Z" fill="#d57564" stroke="#d57564"/><path d="M230,1033L230,1282L481,1204Z" fill="#d76d58" stroke="#d76d58"/><path d="M230,1033L481,1204L497,1099Z" fill="#dc6851" stroke="#dc6851"/><path d="M497,1099L481,1204L702,1290Z" fill="#d55e48" stroke="#d55e48"/><path d="M497,1099L702,1290L713,1048Z" fill="#d95942" stroke="#d95942"/><path d="M713,1048L702,1290L851,1096Z" fill="#d9533f" stroke="#d9533f"/><path d="M851,1096L702,1290L856,1298Z" fill="#d25040" stroke="#d25040"/><path d="M851,1096L856,1298L1017,1273Z" fill="#d24a3d" stroke="#d24a3d"/><path d="M851,1096L1017,1273L1094,994Z" fill="#da4339" stroke="#da4339"/><path d="M1094,994L1017,1273L1249,1191Z" fill="#d53233" stroke="#d53233"/><path d="M1094,994L1249,1191L1257,1101Z" fill="#d8282f" stroke="#d8282f"/><path d="M1257,1101L1249,1191L1444,1089Z" fill="#d11a2c" stroke="#d11a2c"/><path d="M1444,1089L1249,1191L1367,1283Z" fill="#c9172d" stroke="#c9172d"/><path d="M1444,1089L1367,1283L1645,1233Z" fill="#bd0b2f" stroke="#bd0b2f"/><path d="M1444,1089L1645,1233L1668,1031Z" fill="#bc012e" stroke="#bc012e"/><path d="M1668,1031L1645,1233L1804,1258Z" fill="#ae0031" stroke="#ae0031"/><path d="M1668,1031L1804,1258L1761,1009Z" fill="#b10030" stroke="#b10030"/><path d="M1761,1009L1804,1258L2002,1055Z" fill="#a70031" stroke="#a70031"/><path d="M2002,1055L1804,1258L1990,1228Z" fill="#9b0033" stroke="#9b0033"/><path d="M2002,1055L1990,1228L2139,1040Z" fill="#980032" stroke="#980032"/><path d="M2139,1040L1990,1228L2174,1277Z" fill="#8e0034" stroke="#8e0034"/><path d="M230,1282L856,1298L702,1290Z" fill="#cd5c48" stroke="#cd5c48"/><path d="M230,1282L702,1290L481,1204Z" fill="#d0644f" stroke="#d0644f"/><path d="M856,1298L2174,1277L1367,1283Z" fill="#b70d30" stroke="#b70d30"/><path d="M856,1298L1367,1283L1017,1273Z" fill="#ca3737" stroke="#ca3737"/><path d="M1017,1273L1367,1283L1249,1191Z" fill="#cb2731" stroke="#cb2731"/><path d="M1367,1283L2174,1277L1804,1258Z" fill="#9f0033" stroke="#9f0033"/><path d="M1367,1283L1804,1258L1645,1233Z" fill="#af0031" stroke="#af0031"/><path d="M1804,1258L2174,1277L1990,1228Z" fill="#900035" stroke="#900035"/></g></svg>