<svg width="1919" height="1057" xmlns="http://www.w3.org/2000/svg"><g><path d="M-68,-88L-157,314L-58,90Z" fill="#e83429" stroke="#e83429"/><path d="M-68,-88L-58,90L85,49Z" fill="#eb2221" stroke="#eb2221"/><path d="M-68,-88L85,49L73,-102Z" fill="#ec131b" stroke="#ec131b"/><path d="M73,-102L85,49L294,-47Z" fill="#f12b26" stroke="#f12b26"/><path d="M73,-102L294,-47L607,-88Z" fill="#f83f2b" stroke="#f83f2b"/><path d="M73,-102L607,-88L1434,-106Z" fill="#eb6243" stroke="#eb6243"/><path d="M73,-102L1434,-106L2200,-160Z" fill="#b05559" stroke="#b05559"/><path d="M294,-47L85,49L264,103Z" fill="#f44b35" stroke="#f44b35"/><path d="M294,-47L264,103L539,139Z" fill="#fa6c44" stroke="#fa6c44"/><path d="M294,-47L539,139L536,-38Z" fill="#fd6b43" stroke="#fd6b43"/><path d="M294,-47L536,-38L607,-88Z" fill="#fe573a" stroke="#fe573a"/><path d="M536,-38L539,139L725,104Z" fill="#f48555" stroke="#f48555"/><path d="M536,-38L725,104L607,-88Z" fill="#f26d4b" stroke="#f26d4b"/><path d="M607,-88L725,104L815,-40Z" fill="#ea7252" stroke="#ea7252"/><path d="M607,-88L815,-40L1095,-69Z" fill="#e06951" stroke="#e06951"/><path d="M607,-88L1095,-69L1276,-84Z" fill="#d16c59" stroke="#d16c59"/><path d="M607,-88L1276,-84L1434,-106Z" fill="#c26159" stroke="#c26159"/><path d="M815,-40L725,104L914,31Z" fill="#e1845f" stroke="#e1845f"/><path d="M815,-40L914,31L1095,-69Z" fill="#d7775e" stroke="#d7775e"/><path d="M1095,-69L914,31L1066,98Z" fill="#cd8168" stroke="#cd8168"/><path d="M1095,-69L1066,98L1294,44Z" fill="#bc766c" stroke="#bc766c"/><path d="M1095,-69L1294,44L1276,-84Z" fill="#b25c64" stroke="#b25c64"/><path d="M1276,-84L1294,44L1438,33Z" fill="#a35c6c" stroke="#a35c6c"/><path d="M1276,-84L1438,33L1434,-106Z" fill="#9d4865" stroke="#9d4865"/><path d="M1434,-106L1438,33L1656,-62Z" fill="#8c3e69" stroke="#8c3e69"/><path d="M1434,-106L1656,-62L1862,-86Z" fill="#802e67" stroke="#802e67"/><path d="M1434,-106L1862,-86L2200,-160Z" fill="#801d66" stroke="#801d66"/><path d="M1656,-62L1438,33L1557,157Z" fill="#865778" stroke="#865778"/><path d="M1656,-62L1557,157L1768,60Z" fill="#80507c" stroke="#80507c"/><path d="M1656,-62L1768,60L1862,-86Z" fill="#802b72" stroke="#802b72"/><path d="M1862,-86L1768,60L1940,62Z" fill="#80307a" stroke="#80307a"/><path d="M1862,-86L1940,62L1999,-66Z" fill="#801b76" stroke="#801b76"/><path d="M1862,-86L1999,-66L2200,-160Z" fill="#800b6d" stroke="#800b6d"/><path d="M1999,-66L1940,62L2240,101Z" fill="#802482" stroke="#802482"/><path d="M1999,-66L2240,101L2200,-160Z" fill="#800478" stroke="#800478"/><path d="M-58,90L-157,314L89,253Z" fill="#ea5f3e" stroke="#ea5f3e"/><path d="M-58,90L89,253L85,49Z" fill="#ed4f37" stroke="#ed4f37"/><path d="M85,49L89,253L264,103Z" fill="#f1613f" stroke="#f1613f"/><path d="M264,103L89,253L340,290Z" fill="#f48851" stroke="#f48851"/><path d="M264,103L340,290L433,248Z" fill="#f99959" stroke="#f99959"/><path d="M264,103L433,248L539,139Z" fill="#fc9356" stroke="#fc9356"/><path d="M539,139L433,248L603,339Z" fill="#faba6a" stroke="#faba6a"/><path d="M539,139L603,339L725,104Z" fill="#f2af6a" stroke="#f2af6a"/><path d="M725,104L603,339L867,314Z" fill="#e9c77a" stroke="#e9c77a"/><path d="M725,104L867,314L914,31Z" fill="#e0ab72" stroke="#e0ab72"/><path d="M914,31L867,314L1066,98Z" fill="#d6b07a" stroke="#d6b07a"/><path d="M1066,98L867,314L1063,269Z" fill="#d0c787" stroke="#d0c787"/><path d="M1066,98L1063,269L1252,291Z" fill="#bfb889" stroke="#bfb889"/><path d="M1066,98L1252,291L1294,44Z" fill="#b5987f" stroke="#b5987f"/><path d="M1294,44L1252,291L1476,289Z" fill="#a2a08c" stroke="#a2a08c"/><path d="M1294,44L1476,289L1438,33Z" fill="#9a7e80" stroke="#9a7e80"/><path d="M1438,33L1476,289L1557,157Z" fill="#8e8288" stroke="#8e8288"/><path d="M1557,157L1476,289L1624,231Z" fill="#869293" stroke="#869293"/><path d="M1557,157L1624,231L1768,60Z" fill="#80708a" stroke="#80708a"/><path d="M1768,60L1624,231L1802,230Z" fill="#807090" stroke="#807090"/><path d="M1768,60L1802,230L1940,62Z" fill="#80548a" stroke="#80548a"/><path d="M1940,62L1802,230L1942,301Z" fill="#806997" stroke="#806997"/><path d="M1940,62L1942,301L2240,101Z" fill="#804d94" stroke="#804d94"/><path d="M2240,101L1942,301L2227,336Z" fill="#8062a4" stroke="#8062a4"/><path d="M2240,101L2227,336L2226,513Z" fill="#7b6db1" stroke="#7b6db1"/><path d="M2240,101L2226,513L2228,679Z" fill="#7077c2" stroke="#7077c2"/><path d="M-157,314L-132,635L-65,440Z" fill="#d47a5e" stroke="#d47a5e"/><path d="M-157,314L-65,440L89,253Z" fill="#e27450" stroke="#e27450"/><path d="M89,253L-65,440L121,469Z" fill="#e1875e" stroke="#e1875e"/><path d="M89,253L121,469L340,290Z" fill="#ec9760" stroke="#ec9760"/><path d="M340,290L121,469L336,536Z" fill="#e6ad74" stroke="#e6ad74"/><path d="M340,290L336,536L511,433Z" fill="#ecc07c" stroke="#ecc07c"/><path d="M340,290L511,433L433,248Z" fill="#f7bc70" stroke="#f7bc70"/><path d="M433,248L511,433L603,339Z" fill="#f4c878" stroke="#f4c878"/><path d="M603,339L511,433L607,525Z" fill="#e6d38b" stroke="#e6d38b"/><path d="M603,339L607,525L867,530Z" fill="#d9db98" stroke="#d9db98"/><path d="M603,339L867,530L867,314Z" fill="#d8d993" stroke="#d8d993"/><path d="M867,314L867,530L1022,436Z" fill="#c9e3a2" stroke="#c9e3a2"/><path d="M867,314L1022,436L1063,269Z" fill="#cadb98" stroke="#cadb98"/><path d="M1063,269L1022,436L1252,291Z" fill="#bace9a" stroke="#bace9a"/><path d="M1252,291L1022,436L1202,539Z" fill="#acd2a8" stroke="#acd2a8"/><path d="M1252,291L1202,539L1477,472Z" fill="#96c5ae" stroke="#96c5ae"/><path d="M1252,291L1477,472L1476,289Z" fill="#92b5a3" stroke="#92b5a3"/><path d="M1476,289L1477,472L1568,460Z" fill="#7eb0ae" stroke="#7eb0ae"/><path d="M1476,289L1568,460L1624,231Z" fill="#80a4a3" stroke="#80a4a3"/><path d="M1624,231L1568,460L1802,230Z" fill="#7c98a2" stroke="#7c98a2"/><path d="M1802,230L1568,460L1814,534Z" fill="#729bb3" stroke="#729bb3"/><path d="M1802,230L1814,534L1942,301Z" fill="#778aae" stroke="#778aae"/><path d="M1942,301L1814,534L1970,412Z" fill="#718bb9" stroke="#718bb9"/><path d="M1942,301L1970,412L2227,336Z" fill="#7878b2" stroke="#7878b2"/><path d="M2227,336L1970,412L2226,513Z" fill="#7176bf" stroke="#7176bf"/><path d="M-65,440L-132,635L43,668Z" fill="#c17a6f" stroke="#c17a6f"/><path d="M-65,440L43,668L121,469Z" fill="#d49172" stroke="#d49172"/><path d="M121,469L43,668L302,729Z" fill="#bd9380" stroke="#bd9380"/><path d="M121,469L302,729L336,536Z" fill="#cdaa85" stroke="#cdaa85"/><path d="M336,536L302,729L420,640Z" fill="#c1af8f" stroke="#c1af8f"/><path d="M336,536L420,640L511,433Z" fill="#e0cc8f" stroke="#e0cc8f"/><path d="M511,433L420,640L607,525Z" fill="#e1d795" stroke="#e1d795"/><path d="M607,525L420,640L714,657Z" fill="#c5cd9e" stroke="#c5cd9e"/><path d="M607,525L714,657L867,530Z" fill="#c3dba6" stroke="#c3dba6"/><path d="M867,530L714,657L855,686Z" fill="#add5ae" stroke="#add5ae"/><path d="M867,530L855,686L1035,637Z" fill="#a5dcb6" stroke="#a5dcb6"/><path d="M867,530L1035,637L1022,436Z" fill="#b8ecb5" stroke="#b8ecb5"/><path d="M1022,436L1035,637L1202,539Z" fill="#a8e1b8" stroke="#a8e1b8"/><path d="M1202,539L1035,637L1292,682Z" fill="#84c9be" stroke="#84c9be"/><path d="M1202,539L1292,682L1392,625Z" fill="#76bec0" stroke="#76bec0"/><path d="M1202,539L1392,625L1477,472Z" fill="#82c6be" stroke="#82c6be"/><path d="M1477,472L1392,625L1614,613Z" fill="#68b4c3" stroke="#68b4c3"/><path d="M1477,472L1614,613L1568,460Z" fill="#6eb6c0" stroke="#6eb6c0"/><path d="M1568,460L1614,613L1814,534Z" fill="#64abc5" stroke="#64abc5"/><path d="M1814,534L1614,613L1771,682Z" fill="#4f97ca" stroke="#4f97ca"/><path d="M1814,534L1771,682L1946,682Z" fill="#4888ce" stroke="#4888ce"/><path d="M1814,534L1946,682L1970,412Z" fill="#6293cb" stroke="#6293cb"/><path d="M1970,412L1946,682L2226,513Z" fill="#6487ce" stroke="#6487ce"/><path d="M2226,513L1946,682L2228,679Z" fill="#4a6ed4" stroke="#4a6ed4"/><path d="M-132,635L-51,1283L-80,1049Z" fill="#682980" stroke="#682980"/><path d="M-132,635L-80,1049L-96,916Z" fill="#6c4079" stroke="#6c4079"/><path d="M-132,635L-96,916L44,824Z" fill="#835179" stroke="#835179"/><path d="M-132,635L44,824L43,668Z" fill="#9d6878" stroke="#9d6878"/><path d="M43,668L44,824L302,729Z" fill="#997984" stroke="#997984"/><path d="M302,729L44,824L310,878Z" fill="#89798e" stroke="#89798e"/><path d="M302,729L310,878L536,882Z" fill="#8a8f9b" stroke="#8a8f9b"/><path d="M302,729L536,882L420,640Z" fill="#a2a499" stroke="#a2a499"/><path d="M420,640L536,882L672,803Z" fill="#98aca3" stroke="#98aca3"/><path d="M420,640L672,803L714,657Z" fill="#a9bda4" stroke="#a9bda4"/><path d="M714,657L672,803L795,823Z" fill="#8cb7b0" stroke="#8cb7b0"/><path d="M714,657L795,823L855,686Z" fill="#92c2b2" stroke="#92c2b2"/><path d="M855,686L795,823L1014,919Z" fill="#70b6bd" stroke="#70b6bd"/><path d="M855,686L1014,919L1035,637Z" fill="#7bc4bf" stroke="#7bc4bf"/><path d="M1035,637L1014,919L1261,911Z" fill="#54aac6" stroke="#54aac6"/><path d="M1035,637L1261,911L1292,682Z" fill="#5eb0c4" stroke="#5eb0c4"/><path d="M1292,682L1261,911L1401,846Z" fill="#3997ca" stroke="#3997ca"/><path d="M1292,682L1401,846L1392,625Z" fill="#4fa5c7" stroke="#4fa5c7"/><path d="M1392,625L1401,846L1614,613Z" fill="#489fc8" stroke="#489fc8"/><path d="M1614,613L1401,846L1675,873Z" fill="#2387ce" stroke="#2387ce"/><path d="M1614,613L1675,873L1771,682Z" fill="#2e86ce" stroke="#2e86ce"/><path d="M1771,682L1675,873L1782,821Z" fill="#1a73d3" stroke="#1a73d3"/><path d="M1771,682L1782,821L1946,682Z" fill="#2c77d2" stroke="#2c77d2"/><path d="M1946,682L1782,821L2039,847Z" fill="#1c64d7" stroke="#1c64d7"/><path d="M1946,682L2039,847L2228,679Z" fill="#2a5fd8" stroke="#2a5fd8"/><path d="M2228,679L2039,847L2161,884Z" fill="#174cdd" stroke="#174cdd"/><path d="M2228,679L2161,884L2172,1002Z" fill="#0843e0" stroke="#0843e0"/><path d="M2228,679L2172,1002L2174,1249Z" fill="#002ce6" stroke="#002ce6"/><path d="M-96,916L-80,1049L93,1092Z" fill="#6b2c86" stroke="#6b2c86"/><path d="M-96,916L93,1092L44,824Z" fill="#6c4086" stroke="#6c4086"/><path d="M44,824L93,1092L310,878Z" fill="#72588f" stroke="#72588f"/><path d="M310,878L93,1092L298,1040Z" fill="#755899" stroke="#755899"/><path d="M310,878L298,1040L431,982Z" fill="#79709f" stroke="#79709f"/><path d="M310,878L431,982L536,882Z" fill="#7d86a2" stroke="#7d86a2"/><path d="M536,882L431,982L681,1030Z" fill="#7989ad" stroke="#7989ad"/><path d="M536,882L681,1030L672,803Z" fill="#7298b0" stroke="#7298b0"/><path d="M672,803L681,1030L795,823Z" fill="#6b9fb5" stroke="#6b9fb5"/><path d="M795,823L681,1030L920,1094Z" fill="#6391c0" stroke="#6391c0"/><path d="M795,823L920,1094L996,992Z" fill="#5b99c6" stroke="#5b99c6"/><path d="M795,823L996,992L1014,919Z" fill="#58a6c6" stroke="#58a6c6"/><path d="M1014,919L996,992L1267,1006Z" fill="#448fcd" stroke="#448fcd"/><path d="M1014,919L1267,1006L1261,911Z" fill="#388cce" stroke="#388cce"/><path d="M1261,911L1267,1006L1401,846Z" fill="#2784d0" stroke="#2784d0"/><path d="M1401,846L1267,1006L1480,1030Z" fill="#1d76d3" stroke="#1d76d3"/><path d="M1401,846L1480,1030L1576,1026Z" fill="#106bd6" stroke="#106bd6"/><path d="M1401,846L1576,1026L1675,873Z" fill="#076ed5" stroke="#076ed5"/><path d="M1675,873L1576,1026L1868,991Z" fill="#0057db" stroke="#0057db"/><path d="M1675,873L1868,991L1782,821Z" fill="#005dd9" stroke="#005dd9"/><path d="M1782,821L1868,991L2039,847Z" fill="#0053db" stroke="#0053db"/><path d="M2039,847L1868,991L1990,1027Z" fill="#0040e0" stroke="#0040e0"/><path d="M2039,847L1990,1027L2172,1002Z" fill="#0036e3" stroke="#0036e3"/><path d="M2039,847L2172,1002L2161,884Z" fill="#003ae2" stroke="#003ae2"/><path d="M-80,1049L-51,1283L93,1092Z" fill="#6b178d" stroke="#6b178d"/><path d="M93,1092L-51,1283L110,1206Z" fill="#6e1891" stroke="#6e1891"/><path d="M93,1092L110,1206L235,1194Z" fill="#722c98" stroke="#722c98"/><path d="M93,1092L235,1194L298,1040Z" fill="#74409c" stroke="#74409c"/><path d="M298,1040L235,1194L540,1250Z" fill="#7a4da7" stroke="#7a4da7"/><path d="M298,1040L540,1250L431,982Z" fill="#7d64aa" stroke="#7d64aa"/><path d="M431,982L540,1250L681,1030Z" fill="#7972b3" stroke="#7972b3"/><path d="M681,1030L540,1250L661,1277Z" fill="#7263bb" stroke="#7263bb"/><path d="M681,1030L661,1277L861,1243Z" fill="#6969c2" stroke="#6969c2"/><path d="M681,1030L861,1243L920,1094Z" fill="#6278c8" stroke="#6278c8"/><path d="M920,1094L861,1243L1004,1208Z" fill="#5872d0" stroke="#5872d0"/><path d="M920,1094L1004,1208L996,992Z" fill="#5482d1" stroke="#5482d1"/><path d="M996,992L1004,1208L1189,1246Z" fill="#4871d4" stroke="#4871d4"/><path d="M996,992L1189,1246L1267,1006Z" fill="#3c75d4" stroke="#3c75d4"/><path d="M1267,1006L1189,1246L1434,1214Z" fill="#2959d9" stroke="#2959d9"/><path d="M1267,1006L1434,1214L1480,1030Z" fill="#1c5eda" stroke="#1c5eda"/><path d="M1480,1030L1434,1214L1574,1224Z" fill="#0e46de" stroke="#0e46de"/><path d="M1480,1030L1574,1224L1576,1026Z" fill="#084dde" stroke="#084dde"/><path d="M1576,1026L1574,1224L1868,991Z" fill="#0044e0" stroke="#0044e0"/><path d="M1868,991L1574,1224L1857,1282Z" fill="#002be4" stroke="#002be4"/><path d="M1868,991L1857,1282L1955,1209Z" fill="#0020e7" stroke="#0020e7"/><path d="M1868,991L1955,1209L1990,1027Z" fill="#002ce6" stroke="#002ce6"/><path d="M1990,1027L1955,1209L2174,1249Z" fill="#0012eb" stroke="#0012eb"/><path d="M1990,1027L2174,1249L2172,1002Z" fill="#0019eb" stroke="#0019eb"/><path d="M-51,1283L1857,1282L661,1277Z" fill="#6168c8" stroke="#6168c8"/><path d="M-51,1283L661,1277L540,1250Z" fill="#7b48a9" stroke="#7b48a9"/><path d="M-51,1283L540,1250L235,1194Z" fill="#75329f" stroke="#75329f"/><path d="M-51,1283L235,1194L110,1206Z" fill="#701c95" stroke="#701c95"/><path d="M661,1277L1857,1282L1189,1246Z" fill="#3155d8" stroke="#3155d8"/><path d="M661,1277L1189,1246L861,1243Z" fill="#5b6cce" stroke="#5b6cce"/><path d="M861,1243L1189,1246L1004,1208Z" fill="#4e69d3" stroke="#4e69d3"/><path d="M1189,1246L1857,1282L1574,1224Z" fill="#0838df" stroke="#0838df"/><path d="M1189,1246L1574,1224L1434,1214Z" fill="#1b46dc" stroke="#1b46dc"/><path d="M1857,1282L2174,1249L1955,1209Z" fill="#000eea" stroke="#000eea"/></g></svg>